<svg xmlns="http://www.w3.org/2000/svg" width="102.072" height="102.069" viewBox="0 0 102.072 102.069">
  <g id="Grupo_5393" data-name="Grupo 5393" transform="translate(-128.964 -292.123)">
    <g id="Capa_x0020_1" transform="translate(47.886 252.623)">
      <path id="Trazado_2583" data-name="Trazado 2583" d="M14220.035,7654a51.034,51.034,0,1,1-51.035,51.034A51.035,51.035,0,0,1,14220.035,7654Z" transform="translate(-14087.922 -7614.5)" fill="#fefefe" fill-rule="evenodd"/>
      <path id="Trazado_2584" data-name="Trazado 2584" d="M17429.814,10871a42.817,42.817,0,1,1-42.814,42.816A42.818,42.818,0,0,1,17429.814,10871Z" transform="translate(-17297.701 -10823.282)" fill="#fefefe" fill-rule="evenodd"/>
      <g id="Grupo_5390" data-name="Grupo 5390">
        <path id="Trazado_2585" data-name="Trazado 2585" d="M23086.809,16493.717c4.555,3.051,6.129,2.33,6.229,6.852C23089.25,16500.484,23087.254,16497.191,23086.809,16493.717Zm-28.029-9.344c2.752,3.295-3.359,6.326-9.469,12.955l-2.279,2.127c-4.437,3.268-5.395.916-1.516-2.793,1.662-1.586,2.777-2.738,4.387-4.346C23051.895,16490.322,23056.41,16485,23058.779,16484.373Zm9.342-2.49-6.838-.777,20.7-20.869c2.041-2.041,5.408-5.268,6.7-7.631,7.025,0-5.961,14.379-7.629,16.041C23077.789,16471.893,23070.273,16478.668,23068.121,16481.883Zm-1.244-11.215-4.859-4.488c3.576-7.711-5.6-14.963-11.58-18.773l-1.551,1.553c3.43,3.131,10.352,6.711,11,13.072,0,3.551-2.811,5.5-5.846,5.5-4.674-.73-9.01-7.65-12.7-11.184l-1.338,1.855c.939,2.076,7.9,9.229,9.563,10.477,6.289,4.711,8.082-3.094,13.578,5.109-5.291,7.895-23.051,19.107-23.051,26.783,0,1.277,3.551,7.619,10.158-.432l9.08-8.984c5.371-5.162,5.26-3.23,4.434-6.779,2.871.24,1.7.5,3.738,1.869l4.238-3.863c9.334,6.371,13.6,17.215,15.326,19.18,5.02,5.736,13.037.516,7.984-6.113-1.223-1.605-5.121-3.508-7.193-4.645-2.43-1.334-12.881-10.492-13.016-11.682,1.523-1.83,25.855-17.924,16.328-32.119C23088.068,16448.121,23067.43,16469.844,23066.877,16470.668Z" transform="translate(-22936.262 -16385.039)" fill="#201e1e" fill-rule="evenodd"/>
        <path id="Trazado_2586" data-name="Trazado 2586" d="M25493,17818.664l1.582-1.664,9.25,8.789-1.582,1.666Z" transform="translate(-25382.996 -17751.539)" fill="#201e1e" fill-rule="evenodd"/>
        <path id="Trazado_2587" data-name="Trazado 2587" d="M24223,19046.664l1.584-1.664,9.25,8.787-1.584,1.668Z" transform="translate(-24116.24 -18976.402)" fill="#201e1e" fill-rule="evenodd"/>
      </g>
    </g>
  </g>
</svg>
